<?xml version="1.0" encoding="UTF-8" standalone="no"?>
<svg
   xmlns:dc="http://purl.org/dc/elements/1.1/"
   xmlns:cc="http://creativecommons.org/ns#"
   xmlns:rdf="http://www.w3.org/1999/02/22-rdf-syntax-ns#"
   xmlns:svg="http://www.w3.org/2000/svg"
   xmlns="http://www.w3.org/2000/svg"
   xmlns:sodipodi="http://sodipodi.sourceforge.net/DTD/sodipodi-0.dtd"
   xmlns:inkscape="http://www.inkscape.org/namespaces/inkscape"
   version="1.1"
   id="Layer_1"
   x="0px"
   y="0px"
   width="100px"
   height="100px"
   viewBox="0 0 100 100"
   enable-background="new 0 0 100 100"
   xml:space="preserve"
   sodipodi:docname="revvpreloader.svg"
   inkscape:version="0.92.3 (2405546, 2018-03-11)"><metadata
   id="metadata186"><rdf:RDF><cc:Work
       rdf:about=""><dc:format>image/svg+xml</dc:format><dc:type
         rdf:resource="http://purl.org/dc/dcmitype/StillImage" /><dc:title /></cc:Work></rdf:RDF></metadata><defs
   id="defs184" /><sodipodi:namedview
   pagecolor="#ffffff"
   bordercolor="#666666"
   borderopacity="1"
   objecttolerance="10"
   gridtolerance="10"
   guidetolerance="10"
   inkscape:pageopacity="0"
   inkscape:pageshadow="2"
   inkscape:window-width="1920"
   inkscape:window-height="1054"
   id="namedview182"
   showgrid="false"
   inkscape:zoom="6.675088"
   inkscape:cx="47.365465"
   inkscape:cy="45.04002"
   inkscape:window-x="-9"
   inkscape:window-y="-9"
   inkscape:window-maximized="1"
   inkscape:current-layer="Layer_1" />
<!-- large inner circle -->
<g
   id="g4" transform="translate(50,50)">
	<circle
   r="33"
   id="circle2"
   style="fill:#3e2767" >
      <animateTransform
      attributeName="transform"
      type="scale"
      additive="sum"
      begin="-0.5s"  
      calcMode="spline" 
      keySplines="0.3 0 0.7 1;0.3 0 0.7 1" 
      values="0.75;1;0.75" 
      keyTimes="0;0.5;1"
      dur="1.5s"
      repeatCount="indefinite" />
   </circle>
</g>
<!-- logo -->

<!-- outer ring -->
<!-- <g
   id="g151"
   transform="translate(-3.4807363e-7,1.1996214)">
	<g
   id="g149">
		<linearGradient
   id="SVGID_1_"
   gradientUnits="userSpaceOnUse"
   x1="1.5"
   y1="48.862301"
   x2="98.5"
   y2="48.862301">
		<stop
   offset="0"
   style="stop-color:#7053A3"
   id="stop142" />
		<stop
   offset="1"
   style="stop-color:#3F2267"
   id="stop144" />
		</linearGradient>
   	<path
   d="M 96.551,49.388 C 96.215,73.044 78.49,94.806 54.221,96.534 31.478,98.151 10.936,82.338 4.991,60.729 -1.085,38.637 10.54,15.35 30.676,5.328 52.471,-5.521 79.212,6.16 90.641,26.294 c 3.986,7.022 5.797,15.071 5.91,23.094 -0.003,-0.223 2.902,-0.509 2.898,-0.776 C 99.125,25.787 83.293,6.369 60.959,1.554 43.604,-2.188 24.11,4.774 12.402,17.808 -2.932,34.879 -2.923,61.038 10.751,78.975 c 12.2,16.002 33.147,21.513 52.101,16.3 21.375,-5.88 36.279,-24.313 36.597,-46.663 -0.004,0.25 -2.893,0.482 -2.898,0.776 z"
   id="path147"
   style="fill:url(#SVGID_1_)"
   inkscape:connector-curvature="0" />
	</g>
   <animateTransform
   attributeName="transform"
   type="rotate"
   begin="0s"
   from="0 50 50"
   to="360 50 50"
   dur="5s"
   repeatCount="indefinite" />
</g> -->


<!-- Barline left -->
<linearGradient
   id="SVGID_2_"
   gradientUnits="userSpaceOnUse"
   x1="89.083"
   y1="48.6787"
   x2="92.416"
   y2="48.6787">
	<stop
   offset="0"
   style="stop-color:#D75CA2"
   id="stop153" />
	<stop
   offset="1"
   style="stop-color:#8F1463"
   id="stop155" />
</linearGradient>
<path
   d="M92.416,54.829c0,0.922-0.746,1.668-1.667,1.668l0,0c-0.92,0-1.666-0.746-1.666-1.668V42.527  c0-0.92,0.746-1.667,1.666-1.667l0,0c0.921,0,1.667,0.746,1.667,1.667V54.829z"
   id="path158"
   fill="url(#SVGID_2_)">
   <animateTransform
   attributeName="transform"
   type="rotate"
   begin="0s"
   from="360 50 50"
   to="0 50 50"
   dur="1s"
   repeatCount="indefinite" />
   </path>

<!-- barline top -->
<linearGradient
   id="SVGID_3_"
   gradientUnits="userSpaceOnUse"
   x1="42.1816"
   y1="84.9014"
   x2="57.8164"
   y2="87.4"
   gradientTransform="translate(0,0.59999068)">
	<stop
   offset="0"
   style="stop-color:#D75CA2"
   id="stop160" />
	<stop
   offset="1"
   style="stop-color:#8F1463"
   id="stop162" />
</linearGradient>
<path
   d="m 43.845,16.067991 c -0.922,-0.002 -1.666,-0.75 -1.664,-1.671 v 0 c 0.002,-0.92 0.75,-1.664 1.672,-1.662 l 12.302,0.032 c 0.92,0.002 1.664,0.75 1.661,1.67 v 0 c -0.003,0.921 -0.751,1.665 -1.671,1.662 z"
   id="path165"
   style="fill:url(#SVGID_3_)"
   inkscape:connector-curvature="0">
      <animateTransform
   attributeName="transform"
   type="rotate"
   begin="0s"
   from="0 50 50"
   to="360 50 50"
   dur="0.5s"
   repeatCount="indefinite" />
      
   </path>

<!-- barline right -->
<linearGradient
   id="SVGID_4_"
   gradientUnits="userSpaceOnUse"
   x1="8.251"
   y1="49.1943"
   x2="11.584"
   y2="49.1943">
	<stop
   offset="0"
   style="stop-color:#D75CA2"
   id="stop167" />
	<stop
   offset="1"
   style="stop-color:#8F1463"
   id="stop169" />
</linearGradient>
<path
   d="M11.584,55.345c0,0.922-0.746,1.668-1.667,1.668l0,0c-0.92,0-1.666-0.746-1.666-1.668V43.043  c0-0.92,0.746-1.667,1.666-1.667l0,0c0.921,0,1.667,0.746,1.667,1.667V55.345z"
   id="path172"
   fill="url(#SVGID_4_)">
      <animateTransform
   attributeName="transform"
   type="rotate"
   begin="0s"
   from="360 50 50"
   to="0 50 50"
   dur="1s"
   repeatCount="indefinite" />

</path>

<!-- barline bottom -->
<linearGradient
   id="SVGID_5_"
   gradientUnits="userSpaceOnUse"
   x1="42.1812"
   y1="84.7344"
   x2="57.8174"
   y2="84.7344"
   gradientTransform="translate(0,0.99999575)">
	<stop
   offset="0"
   style="stop-color:#D75CA2"
   id="stop174" />
	<stop
   offset="1"
   style="stop-color:#8F1463"
   id="stop176" />
</linearGradient>
<path
   d="m 43.845,87.384996 c -0.922,-0.003 -1.666,-0.75 -1.664,-1.671 v 0 c 0.002,-0.92 0.75,-1.664 1.672,-1.662 l 12.302,0.032 c 0.92,0.003 1.664,0.751 1.662,1.671 v 0 c -0.004,0.92 -0.752,1.664 -1.672,1.662 z"
   id="path179"
   style="fill:url(#SVGID_5_)"
   inkscape:connector-curvature="0">
      <animateTransform
   attributeName="transform"
   type="rotate"
   begin="0s"
   from="0 50 50"
   to="360 50 50"
   dur="0.5s"
   repeatCount="indefinite" />
      
   </path>
</svg>